HIERARCHY
ROOT Hips
{
	OFFSET	0.0000	0.0000	0.0000
	CHANNELS 6 Xposition Yposition Zposition Xrotation Yrotation Zrotation
	JOINT Spine
	{
		OFFSET	0.0000	9.5923	-5.1908
		CHANNELS 3 Xrotation Yrotation Zrotation
		JOINT Spine1
		{
			OFFSET	0.0000	8.7537	0.4573
			CHANNELS 3 Xrotation Yrotation Zrotation
			JOINT Spine2
			{
				OFFSET	0.0000	10.8317	-2.4110
				CHANNELS 3 Xrotation Yrotation Zrotation
				JOINT Neck
				{
					OFFSET	0.0000	24.4089	-0.5076
					CHANNELS 3 Xrotation Yrotation Zrotation
					JOINT Head
					{
						OFFSET	-0.0001	13.7840	3.7493
						CHANNELS 3 Xrotation Yrotation Zrotation
						End Site
						{
							OFFSET	0.0001	19.2597	0.5750
						}
					}
				}
				JOINT LeftShoulder
				{
					OFFSET	2.4643	23.5558	8.0704
					CHANNELS 3 Xrotation Yrotation Zrotation
					JOINT LeftArm
					{
						OFFSET	14.3966	3.3787	-5.4672
						CHANNELS 3 Xrotation Yrotation Zrotation
						JOINT LeftForeArm
						{
							OFFSET	30.5813	-0.1084	-0.2650
							CHANNELS 3 Xrotation Yrotation Zrotation
							JOINT LeftHand
							{
								OFFSET	25.5113	0.0740	-0.1528
								CHANNELS 3 Xrotation Yrotation Zrotation
								JOINT LeftHandIndex1
								{
									OFFSET	9.8875	0.8647	2.7462
									CHANNELS 3 Xrotation Yrotation Zrotation
									JOINT LeftHandIndex2
									{
										OFFSET	3.6984	-0.9018	0.6517
										CHANNELS 3 Xrotation Yrotation Zrotation
										JOINT LeftHandIndex3
										{
											OFFSET	2.5248	-0.6158	0.4450
											CHANNELS 3 Xrotation Yrotation Zrotation
											End Site
											{
												OFFSET	1.7966	-0.5363	0.2914
											}
										}
									}
								}
								JOINT LeftHandMiddle1
								{
									OFFSET	10.0350	0.9986	0.2391
									CHANNELS 3 Xrotation Yrotation Zrotation
									JOINT LeftHandMiddle2
									{
										OFFSET	4.5729	0.0128	-0.0270
										CHANNELS 3 Xrotation Yrotation Zrotation
										JOINT LeftHandMiddle3
										{
											OFFSET	2.5347	0.0078	-0.0154
											CHANNELS 3 Xrotation Yrotation Zrotation
											End Site
											{
												OFFSET	2.2767	-0.1608	0.0031
											}
										}
									}
								}
								JOINT LeftHandRing1
								{
									OFFSET	9.5103	0.6665	-2.2500
									CHANNELS 3 Xrotation Yrotation Zrotation
									JOINT LeftHandRing2
									{
										OFFSET	4.1494	-0.2101	-0.2598
										CHANNELS 3 Xrotation Yrotation Zrotation
										JOINT LeftHandRing3
										{
											OFFSET	2.3645	-0.1190	-0.1485
											CHANNELS 3 Xrotation Yrotation Zrotation
											End Site
											{
												OFFSET	2.0907	-0.2570	-0.0988
											}
										}
									}
								}
								JOINT LeftHandPinky1
								{
									OFFSET	8.8251	-0.6706	-3.8857
									CHANNELS 3 Xrotation Yrotation Zrotation
									JOINT LeftHandPinky2
									{
										OFFSET	2.5523	-0.5322	-0.7045
										CHANNELS 3 Xrotation Yrotation Zrotation
										JOINT LeftHandPinky3
										{
											OFFSET	1.8716	-0.3898	-0.5170
											CHANNELS 3 Xrotation Yrotation Zrotation
											End Site
											{
												OFFSET	1.6612	-0.4564	-0.3811
											}
										}
									}
								}
								JOINT LeftHandThumb1
								{
									OFFSET	2.0454	-1.5481	1.5506
									CHANNELS 3 Xrotation Yrotation Zrotation
									JOINT LeftHandThumb2
									{
										OFFSET	3.8081	-1.2506	2.8711
										CHANNELS 3 Xrotation Yrotation Zrotation
										JOINT LeftHandThumb3
										{
											OFFSET	2.5076	-0.8973	1.8066
											CHANNELS 3 Xrotation Yrotation Zrotation
											End Site
											{
												OFFSET	1.8440	-0.6348	1.2627
											}
										}
									}
								}
							}
						}
					}
				}
				JOINT RightShoulder
				{
					OFFSET	-2.4643	23.5558	8.0703
					CHANNELS 3 Xrotation Yrotation Zrotation
					JOINT RightArm
					{
						OFFSET	-14.3992	3.3793	-5.4681
						CHANNELS 3 Xrotation Yrotation Zrotation
						JOINT RightForeArm
						{
							OFFSET	-30.5813	-0.1084	-0.2650
							CHANNELS 3 Xrotation Yrotation Zrotation
							JOINT RightHand
							{
								OFFSET	-25.5113	0.0740	-0.1528
								CHANNELS 3 Xrotation Yrotation Zrotation
								JOINT RightHandIndex1
								{
									OFFSET	-9.8875	0.8648	2.7462
									CHANNELS 3 Xrotation Yrotation Zrotation
									JOINT RightHandIndex2
									{
										OFFSET	-3.6984	-0.9018	0.6517
										CHANNELS 3 Xrotation Yrotation Zrotation
										JOINT RightHandIndex3
										{
											OFFSET	-2.5248	-0.6160	0.4450
											CHANNELS 3 Xrotation Yrotation Zrotation
											End Site
											{
												OFFSET	-1.7966	-0.5363	0.2914
											}
										}
									}
								}
								JOINT RightHandMiddle1
								{
									OFFSET	-10.0350	0.9986	0.2391
									CHANNELS 3 Xrotation Yrotation Zrotation
									JOINT RightHandMiddle2
									{
										OFFSET	-4.5729	0.0128	-0.0270
										CHANNELS 3 Xrotation Yrotation Zrotation
										JOINT RightHandMiddle3
										{
											OFFSET	-2.5347	0.0078	-0.0155
											CHANNELS 3 Xrotation Yrotation Zrotation
											End Site
											{
												OFFSET	-2.2767	-0.1608	0.0031
											}
										}
									}
								}
								JOINT RightHandRing1
								{
									OFFSET	-9.5103	0.6665	-2.2500
									CHANNELS 3 Xrotation Yrotation Zrotation
									JOINT RightHandRing2
									{
										OFFSET	-4.1494	-0.2101	-0.2598
										CHANNELS 3 Xrotation Yrotation Zrotation
										JOINT RightHandRing3
										{
											OFFSET	-2.3646	-0.1190	-0.1485
											CHANNELS 3 Xrotation Yrotation Zrotation
											End Site
											{
												OFFSET	-2.0907	-0.2571	-0.0988
											}
										}
									}
								}
								JOINT RightHandPinky1
								{
									OFFSET	-8.8252	-0.6706	-3.8857
									CHANNELS 3 Xrotation Yrotation Zrotation
									JOINT RightHandPinky2
									{
										OFFSET	-2.5523	-0.5322	-0.7045
										CHANNELS 3 Xrotation Yrotation Zrotation
										JOINT RightHandPinky3
										{
											OFFSET	-1.8716	-0.3897	-0.5170
											CHANNELS 3 Xrotation Yrotation Zrotation
											End Site
											{
												OFFSET	-1.6612	-0.4564	-0.3811
											}
										}
									}
								}
								JOINT RightHandThumb1
								{
									OFFSET	-2.0454	-1.5480	1.5505
									CHANNELS 3 Xrotation Yrotation Zrotation
									JOINT RightHandThumb2
									{
										OFFSET	-3.8081	-1.2508	2.8712
										CHANNELS 3 Xrotation Yrotation Zrotation
										JOINT RightHandThumb3
										{
											OFFSET	-2.5075	-0.8972	1.8066
											CHANNELS 3 Xrotation Yrotation Zrotation
											End Site
											{
												OFFSET	-1.8440	-0.6348	1.2627
											}
										}
									}
								}
							}
						}
					}
				}
			}
		}
	}
	JOINT RightUpLeg
	{
		OFFSET	-10.2614	4.3360	-0.8458
		CHANNELS 3 Xrotation Yrotation Zrotation
		JOINT RightLeg
		{
			OFFSET	-0.8211	-44.6324	0.0000
			CHANNELS 3 Xrotation Yrotation Zrotation
			JOINT RightFoot
			{
				OFFSET	0.0000	-43.8263	0.0000
				CHANNELS 3 Xrotation Yrotation Zrotation
				JOINT RightToeBase
				{
					OFFSET	0.0000	-4.8169	10.0728
					CHANNELS 3 Xrotation Yrotation Zrotation
					End Site
					{
						OFFSET	0.0000	0.0000	6.7574
					}
				}
			}
		}
	}
	JOINT LeftUpLeg
	{
		OFFSET	10.2613	4.3363	-0.8458
		CHANNELS 3 Xrotation Yrotation Zrotation
		JOINT LeftLeg
		{
			OFFSET	0.8212	-44.6327	0.0000
			CHANNELS 3 Xrotation Yrotation Zrotation
			JOINT LeftFoot
			{
				OFFSET	0.0000	-43.8263	0.0000
				CHANNELS 3 Xrotation Yrotation Zrotation
				JOINT LeftToeBase
				{
					OFFSET	0.0000	-4.8169	10.0728
					CHANNELS 3 Xrotation Yrotation Zrotation
					End Site
					{
						OFFSET	0.0000	0.0000	6.7574
					}
				}
			}
		}
	}
}
MOTION
Frames:	6
Frame Time: 0.0333333000
	23.1225	88.9824	-87.8557	27.343870	-27.863070	3.749923	4.742736	7.027778	2.655989	2.046900	3.093173	0.711683	9.378282	16.011360	0.094207	-2.139965	0.509265	-1.741918	-3.461173	-0.064134	1.063880	-6.087744	0.193451	-19.368470	-13.761690	-10.415900	-60.289710	0.173374	-47.658970	0.058003	-0.000001	-0.000005	-0.000010	0.000000	-0.000001	-0.000001	0.000000	0.000000	-0.000001	0.000000	0.000000	-0.000001	0.000000	-0.000001	-0.000001	0.000000	0.000000	-0.000001	0.000000	0.000000	-0.000001	0.000000	-0.000001	-0.000001	0.000000	0.000000	-0.000001	0.000000	0.000000	-0.000001	0.000000	-0.000001	-0.000001	0.000000	0.000000	-0.000001	0.000000	0.000000	-0.000001	0.000000	-0.000001	-0.000001	0.000000	0.000000	-0.000001	0.000000	0.000000	-0.000001	-7.705372	-24.043230	6.888634	4.333357	8.842882	44.964220	0.110526	33.795250	-0.019494	0.000001	0.000001	0.000002	0.000000	0.000000	0.000002	0.000000	0.000000	0.000002	0.000000	0.000000	0.000002	0.000000	0.000000	0.000002	0.000000	0.000000	0.000002	0.000000	0.000000	0.000002	0.000000	0.000000	0.000002	0.000000	0.000000	0.000002	0.000000	0.000000	0.000002	0.000000	0.000000	0.000002	0.000000	0.000000	0.000002	0.000000	0.000000	0.000002	0.000000	0.000000	0.000002	0.000000	0.000000	0.000002	0.000000	0.000000	0.000002	-35.318350	-1.545194	7.227512	17.470090	0.000000	0.000000	-6.379436	-6.329115	-3.473936	-0.106189	-0.000002	0.000000	-60.458630	18.218320	28.039620	37.940650	0.000004	0.000001	1.150856	2.154433	1.005847	-0.184912	0.000001	0.000000
	21.9651	90.0400	-90.4765	28.317160	-27.071530	5.021723	4.859375	7.181631	2.712833	2.122727	3.115602	0.730128	10.558110	17.468740	-0.407428	-2.710959	0.509485	-1.708903	-3.303488	-0.067714	1.151496	-5.927382	0.165721	-18.931910	-19.974680	-18.640600	-60.485170	0.176634	-48.559600	0.062013	0.000001	0.000000	0.000000	0.000000	0.000000	0.000000	0.000000	0.000000	0.000000	0.000000	0.000000	0.000000	0.000000	0.000000	0.000000	0.000000	0.000000	0.000000	0.000000	0.000000	0.000000	0.000000	0.000000	0.000000	0.000000	0.000000	0.000000	0.000000	0.000000	0.000000	0.000000	0.000000	0.000000	0.000000	0.000000	0.000000	0.000000	0.000000	0.000000	0.000000	0.000000	0.000000	0.000000	0.000000	0.000000	0.000000	0.000000	0.000000	-7.611569	-23.674490	6.768937	3.617363	15.091780	50.699220	0.099290	30.257750	-0.013324	0.000000	0.000000	0.000000	0.000000	0.000000	0.000000	0.000000	0.000000	0.000000	0.000000	0.000000	0.000000	0.000000	0.000000	0.000000	0.000000	0.000000	0.000000	0.000000	0.000000	0.000000	0.000000	0.000000	0.000000	0.000000	0.000000	0.000000	0.000000	0.000000	0.000000	0.000000	0.000000	0.000000	0.000000	0.000000	0.000000	0.000000	0.000000	0.000000	0.000000	0.000000	0.000000	0.000000	0.000000	0.000000	0.000000	0.000000	0.000000	-35.746280	-2.600601	6.488893	16.363120	-0.000002	0.000000	-3.822749	-6.078223	-3.148525	0.000004	0.000000	0.000000	-55.287940	15.130000	24.270740	33.109830	0.000002	0.000000	1.820068	0.758270	0.347547	-0.329689	0.000000	0.000000
	20.6899	90.9111	-92.5601	28.792920	-26.728510	5.857341	4.979333	7.240293	2.744272	2.197396	3.125106	0.748044	11.046560	16.742780	-0.401453	-2.946776	0.610730	-2.037567	-3.220359	-0.067218	1.159037	-5.903310	0.161667	-18.866410	-22.906410	-22.102330	-58.404450	0.192243	-51.222710	0.074031	-0.000002	0.000000	-0.000004	-0.000002	-0.000001	-0.000003	-0.000002	-0.000001	-0.000003	-0.000002	-0.000001	-0.000003	-0.000002	-0.000001	-0.000003	-0.000002	-0.000001	-0.000003	-0.000002	-0.000001	-0.000003	-0.000002	-0.000001	-0.000003	-0.000002	-0.000001	-0.000003	-0.000002	-0.000001	-0.000003	-0.000002	-0.000001	-0.000003	-0.000002	-0.000001	-0.000003	-0.000002	-0.000001	-0.000003	-0.000002	-0.000001	-0.000003	-0.000002	-0.000001	-0.000003	-0.000002	-0.000001	-0.000003	-7.398814	-22.846960	6.498903	1.771832	20.598890	55.697130	0.082595	25.083310	-0.006432	0.000001	0.000001	0.000001	0.000000	0.000000	0.000001	0.000000	0.000000	0.000001	0.000000	0.000000	0.000001	0.000000	0.000000	0.000001	0.000000	0.000000	0.000001	0.000000	0.000000	0.000001	0.000000	0.000000	0.000001	0.000000	0.000000	0.000001	0.000000	0.000000	0.000001	0.000000	0.000000	0.000001	0.000000	0.000000	0.000001	0.000000	0.000000	0.000001	0.000000	0.000000	0.000001	0.000000	0.000000	0.000001	0.000000	0.000000	0.000001	-35.995960	-2.672301	6.394794	16.909080	0.000000	0.000000	-1.536748	-4.758439	-2.332560	0.000004	0.000002	0.000000	-49.726040	11.193470	21.043660	29.563450	0.000002	-0.000002	2.207180	-1.130044	-0.513019	-0.606459	-0.000001	0.000001
	19.2650	91.6657	-94.3292	29.055870	-27.051880	6.384135	5.099545	7.208214	2.751908	2.269754	3.122316	0.765459	10.475580	13.545890	0.342432	-2.525235	0.931473	-3.156452	-3.260136	-0.063006	1.079150	-5.524253	0.101556	-17.836500	-22.420500	-21.492880	-55.643370	0.214775	-54.214570	0.089299	0.000001	-0.000003	0.000000	0.000003	-0.000005	0.000000	-0.000003	0.000004	-0.000001	0.000007	-0.000005	0.000005	0.000003	-0.000005	0.000000	-0.000003	0.000004	-0.000001	0.000007	-0.000005	0.000005	0.000003	-0.000005	0.000000	-0.000003	0.000004	-0.000001	0.000007	-0.000005	0.000005	0.000003	-0.000005	0.000000	-0.000003	0.000004	-0.000001	0.000007	-0.000005	0.000005	0.000003	-0.000005	0.000000	-0.000003	0.000004	-0.000001	0.000007	-0.000005	0.000005	-7.097201	-21.694500	6.119460	-1.137005	26.228420	60.055960	0.060490	18.381490	-0.000780	0.000000	0.000000	0.000001	0.000000	0.000000	0.000001	0.000000	0.000000	0.000001	0.000000	0.000000	0.000001	0.000000	0.000000	0.000001	0.000000	0.000000	0.000001	0.000000	0.000000	0.000001	0.000000	0.000000	0.000001	0.000000	0.000000	0.000001	0.000000	0.000000	0.000001	0.000000	0.000000	0.000001	0.000000	0.000000	0.000001	0.000000	0.000000	0.000001	0.000000	0.000000	0.000001	0.000000	0.000000	0.000001	0.000000	0.000000	0.000001	-35.671680	-3.098164	6.967710	16.827450	-0.000001	-0.000001	1.280338	-3.171329	-1.462582	0.000004	0.000000	0.000000	-45.433620	8.536126	19.167340	27.513900	0.000002	0.000001	2.183876	-2.722197	-1.236645	-0.753663	0.000000	-0.000001
	17.9341	92.2739	-95.8723	29.071420	-27.845560	6.800948	5.212055	7.142470	2.754677	2.338777	3.108001	0.782390	9.382974	9.296756	1.685273	-1.773418	1.380675	-4.787512	-3.294220	-0.058517	0.995031	-4.444289	-0.031722	-14.914260	-19.700020	-18.380050	-53.972770	0.238984	-56.824280	0.104832	0.000000	-0.000002	-0.000001	0.000000	-0.000001	-0.000001	0.000000	-0.000001	-0.000001	0.000000	-0.000001	-0.000001	0.000000	-0.000001	-0.000001	0.000000	-0.000001	-0.000001	0.000000	-0.000001	-0.000001	0.000000	-0.000001	-0.000001	0.000000	-0.000001	-0.000001	0.000000	-0.000001	-0.000001	0.000000	-0.000001	-0.000001	0.000000	-0.000001	-0.000001	0.000000	-0.000001	-0.000001	0.000000	-0.000001	-0.000001	0.000000	-0.000001	-0.000001	0.000000	-0.000001	-0.000001	-6.658020	-20.058020	5.573434	-4.439749	31.181270	63.776110	0.039499	12.209410	0.001557	-0.000001	0.000001	0.000000	0.000000	0.000000	0.000000	0.000000	0.000000	0.000000	0.000000	0.000000	0.000000	0.000000	0.000000	0.000000	0.000000	0.000000	0.000000	0.000000	0.000000	0.000000	0.000000	0.000000	0.000000	0.000000	0.000000	0.000000	0.000000	0.000000	0.000000	0.000000	0.000000	0.000000	0.000000	0.000000	0.000000	0.000000	0.000000	0.000000	0.000000	0.000000	0.000000	0.000000	0.000000	0.000000	0.000000	0.000000	0.000000	-34.977840	-4.083763	7.816975	15.713490	0.000000	-0.000001	4.350179	-1.623539	-0.701137	0.000005	-0.000002	0.000000	-42.520980	7.350267	18.333920	26.364860	0.000003	-0.000001	1.933783	-3.453895	-1.579530	-0.602932	0.000000	-0.000002
	17.0536	92.5712	-97.1805	28.650730	-28.736050	7.345422	5.311370	7.082932	2.765374	2.403579	3.083036	0.798828	8.710340	6.090104	3.040376	-1.370281	1.697461	-5.951792	-3.237710	-0.056121	0.961483	-2.975882	-0.124025	-10.959750	-16.310220	-14.792730	-54.181800	0.257791	-58.602490	0.117144	0.000000	0.000001	0.000001	0.000000	0.000001	0.000001	0.000000	0.000001	0.000001	0.000000	0.000001	0.000001	0.000000	0.000001	0.000001	0.000000	0.000001	0.000001	0.000000	0.000001	0.000001	0.000000	0.000001	0.000001	0.000000	0.000001	0.000001	0.000000	0.000001	0.000001	0.000000	0.000001	0.000001	0.000000	0.000001	0.000001	0.000000	0.000001	0.000001	0.000000	0.000001	0.000001	0.000000	0.000001	0.000001	0.000000	0.000001	0.000001	-6.048852	-17.865500	4.827373	-6.957124	34.312850	66.335430	0.026141	8.566148	0.001615	-0.000001	-0.000002	0.000001	0.000000	-0.000001	0.000000	0.000000	-0.000001	0.000000	0.000000	-0.000001	0.000000	0.000000	-0.000001	0.000000	0.000000	-0.000001	0.000000	0.000000	-0.000001	0.000000	0.000000	-0.000001	0.000000	0.000000	-0.000001	0.000000	0.000000	-0.000001	0.000000	0.000000	-0.000001	0.000000	0.000000	-0.000001	0.000000	0.000000	-0.000001	0.000000	0.000000	-0.000001	0.000000	0.000000	-0.000001	0.000000	0.000000	-0.000001	0.000000	-34.533670	-4.934314	8.283305	14.958990	-0.000002	0.000001	6.208995	-0.319951	-0.133236	0.000005	-0.000004	0.000001	-40.644040	6.810190	17.861170	25.697360	0.000002	0.000000	1.943610	-3.355177	-1.537222	-0.301466	0.000001	-0.000001
